<mxfile host="app.diagrams.net" modified="2022-05-30T06:50:33.775Z" agent="5.0 (Macintosh; Intel Mac OS X 10_15_7) AppleWebKit/537.36 (KHTML, like Gecko) Chrome/101.0.0.0 Safari/537.36" etag="qfgIHJFa63vqg7gXRl_z" version="18.1.3" type="github">
  <diagram id="df5aDVYhAmBAGNwJa0Qc" name="Page-1">
    <mxGraphModel dx="1032" dy="744" grid="1" gridSize="10" guides="1" tooltips="1" connect="1" arrows="1" fold="1" page="1" pageScale="1" pageWidth="827" pageHeight="1169" math="0" shadow="0">
      <root>
        <mxCell id="0" />
        <mxCell id="1" parent="0" />
        <mxCell id="kdEfuS7q3PWV6SLRlttd-3" value="查询缓存" style="rounded=1;whiteSpace=wrap;html=1;" vertex="1" parent="1">
          <mxGeometry x="160" y="190" width="120" height="60" as="geometry" />
        </mxCell>
      </root>
    </mxGraphModel>
  </diagram>
</mxfile>
